<svg width="130" height="56" viewBox="0 0 130 56" fill="none" xmlns="http://www.w3.org/2000/svg">
<path fill-rule="evenodd" clip-rule="evenodd" d="M102.36 22.806C102.652 22.5745 102.924 22.4037 103.175 22.284C106.337 20.2256 109.03 19.8418 111.266 21.3639C112.549 22.237 113.58 23.0302 112.729 23.8653C111.929 24.651 111.643 24.4986 110.229 23.7462C110.153 23.7057 110.074 23.6634 109.991 23.6195C108.013 22.5705 106.139 23.9168 104.434 25.1412L104.256 25.2696C99.2166 29.2766 95.5043 32.4896 91.9006 37.7531C89.1187 41.8164 90.4689 41.6722 94.5341 39.0387C100.362 35.2634 106.634 27.6223 108.154 25.7489C110.017 23.4523 112.181 26.3546 111.164 27.7415C110.39 28.7964 109.607 29.8447 108.824 30.8931C107.421 32.7719 106.018 34.6508 104.668 36.5673C103.39 38.3811 104.198 38.8038 105.88 37.9156C114.206 33.5201 121.237 27.5595 128.038 21.4044C131.562 18.2149 129.518 24.209 128.221 25.4769C116.125 37.2973 106.577 41.5827 103.341 40.7401C101.62 40.2918 100.425 38.6996 101.674 35.7796C99.5504 38.0605 95.7588 41.21 92.0854 43.0625C87.7424 45.2524 85.4576 43.7875 88.0211 39.8722C88.3605 39.3538 88.6896 38.8521 89.011 38.3646C82.8267 44.1289 75.9459 49.4783 67.2561 52.4151C63.6261 53.6419 61.5016 50.1845 65.123 46.095C74.2773 35.7574 81.6479 29.0839 90.6694 20.9157L90.6695 20.9156C91.6201 20.055 92.589 19.1777 93.5803 18.2778C95.3681 16.6548 96.3153 14.6839 92.8049 15.1523C87.997 15.7939 84.8975 18.1659 80.9889 21.1571L80.9888 21.1572C79.6479 22.1833 78.2118 23.2823 76.5789 24.4093C75.3985 25.639 75.1704 21.2156 76.5244 20.2809C84.9861 13.7284 89.6179 11.7587 94.2101 11.3947C99.1333 11.0044 100.775 15.9969 96.1348 20.5585C91.2638 25.3468 86.8543 29.3671 82.4585 33.375C77.9842 37.4544 73.524 41.521 68.6054 46.3715C66.6611 48.2889 66.3489 49.8956 68.4326 49.0294C76.7822 45.5586 88.4984 36.1641 94.8764 30.121C96.8477 27.7038 98.94 25.5886 101.697 23.3404L101.696 23.3401L101.705 23.3333C101.923 23.1559 102.141 22.9801 102.36 22.806ZM31.5686 0.510761C36.8865 -1.34961 41.6332 1.97376 43.0556 8.82329C44.9082 17.7445 39.6555 28.6766 32.9032 37.9539C26.8289 46.3 20.5844 52.8671 14.8756 54.3665C9.95651 55.6587 6.53612 52.8823 5.82883 47.6507C4.3571 47.3842 2.95961 46.9767 1.82756 45.7735L1.81492 45.7338C0.659078 44.646 0.0116502 43.4387 0 41.3661C0.338816 28.6716 11.7914 7.42971 31.5686 0.510761ZM5.69955 46.0199C5.69335 45.7934 5.6912 45.5634 5.69393 45.3296C6.14899 36.8068 10.1185 28.3324 17.4867 19.8886C18.8086 18.3736 20.2528 21.9203 19.1869 23.1526C12.7243 30.6238 9.83894 39.358 9.25946 48.7686C9.1328 50.8244 10.5558 50.7811 12.8989 50.3064C20.2859 48.8099 42.7495 24.2861 39.6545 7.16245C38.9865 3.46608 35.012 3.13593 30.4265 5.08002C14.3988 11.8752 2.91686 30.6099 3.49724 43.8548C3.71148 45.4201 4.57127 45.9379 5.69955 46.0199ZM44.6562 27.2477C46.2896 25.5238 47.8695 30.1605 46.5487 31.1984C46.02 31.6138 45.625 31.9073 45.3063 32.1441L45.3063 32.1442C44.3326 32.8677 44.0722 33.0612 42.8894 34.5828C42.2755 35.3726 42.5536 35.5322 43.2726 35.2562C43.5679 35.1428 43.844 35.0372 44.1037 34.9379C47.131 33.7805 47.9234 33.4775 50.7784 31.5982C52.1302 29.9633 53.5373 28.3416 55.165 26.6236C56.5735 25.1371 57.9358 29.1352 56.7968 30.0302C54.9477 31.4831 53.6009 32.8459 52.2975 34.6251L49.7246 38.1371C48.8511 39.3486 49.5394 39.1941 50.4636 38.9791C52.3517 38.5398 54.0765 38.0557 55.6628 37.5332C55.9329 36.5801 56.4357 35.5479 57.2241 34.4667C58.4086 32.8421 61.501 29.3914 65.0277 27.022C69.0252 24.3364 73.4471 23.0253 73.6663 27.0881C73.7266 28.2067 72.6651 29.2077 70.3271 31.2745C70.3224 31.2974 70.3177 31.3205 70.3132 31.3437C66.7749 34.3702 62.9417 36.5092 59.0056 38.1067C57.6605 40.7443 58.6764 42.7662 62.376 40.4749C64.3501 39.2521 66.3945 37.7483 68.4551 36.108C69.4322 35.4236 70.1138 36.8958 69.0961 37.4805C66.4669 39.5417 63.5982 41.5337 60.6501 43.1356C58.023 43.9722 55.5271 42.305 55.4197 39.4143C52.6006 40.3365 49.759 41.0394 46.9632 41.6458C45.7422 42.1706 43.9897 40.0657 45.5182 38.1606C46.1044 37.4297 46.6662 36.7228 47.2138 36.0329C46.1544 36.456 45.1719 36.799 44.2459 37.1223L44.2458 37.1223C42.5326 37.7204 41.0127 38.2511 39.5557 39.0963C38.9413 39.4527 38.0494 40.8347 37.2421 42.0856C36.6291 43.0353 36.0648 43.9096 35.7079 44.2021C33.9943 45.6067 31.439 43.1571 33.4684 40.6274C34.2388 39.667 34.9728 38.7422 35.6876 37.8415L35.6877 37.8413C38.6042 34.1665 41.2018 30.8935 44.6562 27.2477ZM69.9108 29.6076C67.4003 31.7153 64.589 33.7198 60.8784 35.469C63.34 32.5277 66.7765 29.5864 69.9507 27.5509C72.3972 25.9816 72.5395 27.6011 69.9108 29.6076ZM82.7611 54.6068C83.1054 54.3148 83.2776 53.9325 83.2776 53.46C83.2776 52.9557 83.1133 52.5601 82.7849 52.2735C82.5836 52.0983 82.1864 51.8832 81.593 51.6283C81.3599 51.5275 81.193 51.4319 81.0924 51.3417C80.9335 51.1983 80.854 51.0285 80.854 50.832C80.854 50.6781 80.907 50.5507 81.0129 50.4498C81.156 50.3117 81.3811 50.2427 81.6884 50.2427C81.879 50.2427 82.087 50.2706 82.3121 50.3264C82.5373 50.3821 82.7346 50.4445 82.9041 50.5134L83.0233 49.6215C82.7743 49.5314 82.5201 49.4689 82.2604 49.4344C82.0008 49.3999 81.7254 49.3827 81.4341 49.3827C80.7931 49.3827 80.319 49.5764 80.0118 49.964C79.7946 50.24 79.6859 50.5692 79.6859 50.9515C79.6859 51.3231 79.7973 51.631 80.0197 51.8753C80.1945 52.0664 80.5123 52.2761 80.9732 52.5044C81.1004 52.5681 81.2937 52.661 81.5532 52.7831C81.9135 52.9743 82.0936 53.2132 82.0936 53.4999C82.0936 53.675 82.0155 53.8304 81.8592 53.9657C81.7029 54.1012 81.4844 54.1688 81.2037 54.1688C81.0076 54.1688 80.7852 54.1382 80.5362 54.0773C80.2871 54.0162 80.0514 53.9352 79.8289 53.8343L79.7098 54.806C79.9482 54.8962 80.1852 54.9652 80.421 55.013C80.6567 55.0608 80.9017 55.0847 81.156 55.0847C81.8499 55.0847 82.3849 54.9254 82.7611 54.6068ZM88.2001 50.4339H89.8051V49.4463H85.4667V50.4339H87.0717V55.021H88.2001V50.4339ZM96.5635 54.4157C97.125 53.906 97.4058 53.1787 97.4058 52.2336C97.4058 51.2833 97.1223 50.5533 96.5556 50.0436C96.0682 49.603 95.4431 49.3827 94.6803 49.3827C93.9175 49.3827 93.2897 49.6056 92.7971 50.0516C92.2356 50.5613 91.9548 51.2886 91.9548 52.2336C91.9548 53.184 92.2383 53.914 92.8051 54.4237C93.2924 54.8643 93.9175 55.0847 94.6803 55.0847C95.4431 55.0847 96.0709 54.8617 96.5635 54.4157ZM95.61 50.4976C96.0125 50.8373 96.2138 51.416 96.2138 52.2336C96.2138 53.0513 96.0099 53.63 95.602 53.9698C95.3477 54.1821 95.0404 54.2883 94.6802 54.2883C94.3147 54.2883 94.0048 54.1821 93.7505 53.9698C93.348 53.63 93.1467 53.0513 93.1467 52.2336C93.1467 51.416 93.3506 50.8373 93.7585 50.4976C94.0127 50.2852 94.32 50.179 94.6802 50.179C95.0457 50.179 95.3557 50.2852 95.61 50.4976ZM103.219 55.021H104.482L103.576 52.8628C103.438 52.5336 103.245 52.3319 102.996 52.2576C103.272 52.1886 103.499 52.0744 103.679 51.9152C103.939 51.6815 104.069 51.363 104.069 50.9595C104.069 50.5187 103.942 50.1711 103.687 49.9162C103.38 49.6029 102.885 49.4463 102.201 49.4463H100.231V55.021H101.359V52.7275H101.788C101.974 52.7275 102.121 52.7698 102.229 52.8549C102.338 52.9398 102.429 53.0725 102.503 53.253L103.219 55.021ZM102.774 50.6329C102.864 50.7551 102.909 50.9038 102.909 51.0789C102.909 51.2753 102.84 51.4453 102.702 51.5886C102.533 51.7638 102.286 51.8514 101.963 51.8514H101.359V50.3224H101.963C102.35 50.3224 102.62 50.4259 102.774 50.6329ZM109.826 52.7592L111.828 49.4463H110.636L109.484 51.4054L109.27 51.7877L109.095 51.4054L107.951 49.4463H106.648L108.698 52.7434V55.021H109.826V52.7592Z" fill="white"/>
</svg>
