<svg width="15" height="9" viewBox="0 0 15 9" fill="none" xmlns="http://www.w3.org/2000/svg">
<path d="M4.05757 4.68491C4.05757 5.00247 3.79593 5.25991 3.47318 5.25991C3.15042 5.25991 2.88878 5.00247 2.88878 4.68491C2.88878 4.36735 3.15042 4.10991 3.47318 4.10991C3.79593 4.10991 4.05757 4.36732 4.05757 4.68491ZM10.5185 4.11015C10.1959 4.11015 9.93438 4.36747 9.93438 4.68491C9.93438 5.00233 10.1959 5.25967 10.5185 5.25967C10.8411 5.25967 11.1027 5.00235 11.1027 4.68491C11.1027 4.36747 10.8411 4.11015 10.5185 4.11015ZM12.6982 7.45683C11.1701 8.63495 8.96066 8.37116 7.76331 6.86761L7.0079 7.97905L6.25971 6.87687C5.0825 8.32576 2.95264 8.6017 1.43439 7.50199C-0.127628 6.37056 -0.46172 4.20746 0.688203 2.67056C0.540342 2.17811 0.307552 1.71433 0 1.29948L2.20158 1.29828C3.64162 0.416641 5.31123 -0.0337609 7.0069 0.00197269C8.66202 -0.0270596 10.2901 0.417614 11.6931 1.28194L14.0394 1.28371C13.729 1.70174 13.495 2.16979 13.348 2.66684C14.489 4.17229 14.2006 6.29856 12.6982 7.45683ZM6.3245 4.71466C6.32433 3.18978 5.06785 1.95375 3.51804 1.95391C1.96824 1.95408 0.712026 3.19036 0.712173 4.71523C0.712343 6.24011 1.96883 7.47615 3.51863 7.47598C5.06736 7.47418 6.32245 6.23944 6.3245 4.71562V4.71466ZM7.02168 4.46382C7.15416 2.70182 8.6191 1.32361 10.414 1.27232C9.33915 0.815043 8.17781 0.587601 7.00688 0.605043C5.83443 0.593856 4.67182 0.816276 3.58905 1.25891C5.40189 1.29686 6.88825 2.68462 7.02168 4.46382ZM13.1594 3.77363C12.6231 2.34288 11.0096 1.61078 9.55549 2.13839C8.10135 2.66603 7.35728 4.2536 7.89352 5.68433V5.6851C8.4309 7.11521 10.0442 7.84659 11.4982 7.31928C12.9519 6.79136 13.6956 5.20408 13.1594 3.77363ZM5.20911 4.68474V4.6875C5.20772 5.63107 4.42915 6.39486 3.47015 6.39349C2.51116 6.39213 1.73488 5.62608 1.73627 4.68251C1.73766 3.73894 2.51623 2.97515 3.47523 2.97651C4.43254 2.9793 5.20755 3.74283 5.20911 4.68474ZM4.61139 4.68474V4.68272C4.61015 4.06411 4.09947 3.5636 3.47074 3.56483C2.84201 3.56605 2.33332 4.06852 2.33457 4.68712C2.33581 5.30573 2.8465 5.80624 3.4752 5.80501C4.10252 5.8023 4.60998 5.30194 4.61139 4.68474ZM12.254 4.68474V4.68589C12.2536 5.62946 11.4757 6.394 10.5167 6.39349C9.55771 6.39299 8.7807 5.62771 8.78121 4.68412C8.7817 3.74055 9.55951 2.97601 10.5185 2.97651C11.4766 2.9781 12.2528 3.74208 12.254 4.68474ZM11.6565 4.68455C11.6563 4.06593 11.1465 3.56461 10.5177 3.56483C9.889 3.56504 9.37948 4.0667 9.3797 4.68532C9.37992 5.30393 9.88978 5.80523 10.5185 5.80504C11.1468 5.80393 11.6557 5.30293 11.6565 4.68476V4.68455Z" fill="white"/>
</svg>
