<svg width="15" height="9" viewBox="0 0 15 9" fill="none" xmlns="http://www.w3.org/2000/svg">
<path d="M13.7254 0.5556C13.8218 0.235554 13.7254 0 13.2612 0H11.7255C11.3344 0 11.1545 0.202269 11.058 0.427582C11.058 0.427582 10.2758 2.29921 9.17022 3.51283C8.81301 3.8636 8.64874 3.97625 8.45319 3.97625C8.35671 3.97625 8.20809 3.8636 8.20809 3.54355V0.5556C8.20809 0.171545 8.09858 0 7.77526 0H5.36081C5.11572 0 4.9697 0.179226 4.9697 0.34565C4.9697 0.709222 5.52247 0.793714 5.57983 1.81786V4.04026C5.57983 4.52673 5.49118 4.61635 5.29563 4.61635C4.77415 4.61635 3.50695 2.73703 2.75602 0.586325C2.60479 0.168984 2.45617 0 2.06245 0H0.526695C0.0886516 0 0 0.202269 0 0.427582C0 0.826999 0.52148 2.81129 2.42749 5.4331C3.69729 7.2228 5.48597 8.19318 7.11299 8.19318C8.09076 8.19318 8.2107 7.97811 8.2107 7.60686C8.2107 5.89653 8.12205 5.73523 8.61224 5.73523C8.83908 5.73523 9.23019 5.84788 10.1428 6.71073C11.1857 7.73488 11.3578 8.19318 11.9419 8.19318H13.4776C13.9157 8.19318 14.1373 7.97811 14.0096 7.55309C13.7175 6.65952 11.7437 4.82118 11.6551 4.69828C11.4282 4.41152 11.4934 4.2835 11.6551 4.02746C11.6577 4.0249 13.5324 1.43381 13.7254 0.5556Z" fill="white"/>
</svg>
